<?xml version="1.0" encoding="UTF-8"?><svg id="Calque_2" xmlns="http://www.w3.org/2000/svg" viewBox="0 0 369 339.84"><defs><style>.cls-1{fill:none;stroke:#1d1d1b;stroke-miterlimit:10;}.cls-2{fill:#1d1d1b;}</style></defs><g id="Calque_1-2"><path class="cls-2" d="m93.61,246.41c-3.75,0-6.18,4.12-7.49,7.49l-33.51,83.31h-11.61L7.49,253.91c-1.31-3.37-3.74-7.49-7.49-7.49v-4.68h33.33l24.9,58.79,24.15-58.79h11.23v4.68Z"/><path class="cls-1" d="m350.81,162.05v1.43c-.24,27.9-7.28,54.17-19.58,77.25"/><path class="cls-2" d="m369,289.48c0,20.22-4.3,50.36-36.32,50.36-13.48,0-24.9-7.67-30.89-15.35v12.73h-35.57v-4.68c3.75,0,7.49-3.74,7.49-7.49v-125.44c0-3.74-3.74-7.49-7.49-7.49v-4.68h35.57v67.03c5.24-6.18,14.98-15.35,30.89-15.35,29.21,0,36.32,30.52,36.32,50.36Zm-29.96,0c0-21.34-4.3-41.38-15.35-41.38-6.55,0-15.91,7.49-21.9,16.66v50.55c3.56,6.93,11.05,13.11,18.16,13.11,17.97,0,19.1-29.02,19.1-38.95Z"/><path class="cls-1" d="m22.01,164.8c0-90.74,73.56-164.3,164.3-164.3s164.3,73.56,164.3,164.3"/><polyline class="cls-1" points="72.69 46.09 186.1 163.22 186.57 163.68"/><polyline class="cls-1" points="184.66 164.82 186.1 163.22 295.94 42.39"/><line class="cls-1" x1="186.81" y1=".5" x2="186.1" y2="163.22"/><line class="cls-1" x1="22.01" y1="164.09" x2="186.1" y2="164.09"/><line class="cls-1" x1="184.66" y1="164.09" x2="348.76" y2="164.09"/><path class="cls-1" d="m22.02,162.05v2.22c.62,45.75,19.93,86.97,50.66,116.46"/><polyline class="cls-1" points="107.29 244.98 186.09 163.63 186.57 163.14"/><polyline class="cls-1" points="295.94 284.45 186.1 163.62 184.66 162.02"/><line class="cls-1" x1="186.1" y1="163.62" x2="186.81" y2="326.34"/><path class="cls-2" d="m251.25,325.05c0,3.74,3.74,7.49,7.49,7.49v4.68h-35.57v-70.58c0-10.67-5.62-16.1-15.16-16.1-5.43,0-11.05,3.56-14.98,8.24.56,2.43.94,5.05.94,7.86v58.42c0,3.74,3.75,7.49,7.49,7.49v4.68h-35.57v-70.58c0-10.67-5.62-16.1-15.16-16.1-5.05,0-10.11,2.99-14.04,7.3v67.21c0,3.74,3.74,7.49,7.49,7.49v4.68h-35.57v-83.31c0-3.74-3.75-7.49-7.49-7.49v-4.68h35.57v8.23c6.36-5.8,15.91-10.86,26.77-10.86s22.28,3.93,27.52,14.04c6.18-7.11,17.04-14.04,29.77-14.04,14.79,0,30.52,7.3,30.52,27.52v58.42Z"/></g></svg>