<?xml version="1.0" encoding="UTF-8"?>
<svg id="Calque_2" data-name="Calque 2" xmlns="http://www.w3.org/2000/svg" viewBox="0 0 196.37 198.42">
  <defs>
    <style>
      .cls-1 {
        fill: #2a9d8f;
      }

      .cls-2 {
        fill: none;
        stroke: #1d1d1b;
        stroke-miterlimit: 10;
        stroke-width: 4px;
      }

      .cls-3 {
        fill: #f5a261;
      }

      .cls-4 {
        fill: #e86f51;
      }

      .cls-5 {
        fill: #e9c469;
      }

      .cls-6 {
        fill: #1d1d1b;
      }
    </style>
  </defs>
  <g id="Calque_1-2" data-name="Calque 1">
    <g>
      <g>
        <path class="cls-6" d="m86.11,92.49l.02,1.11-.36-.34-.8-.77-.17-.15c.43-.31.86-.63,1.29-.94l.02,1.09Z"/>
        <path class="cls-6" d="m86.13,93.6h-3.06c.58-.41,1.15-.83,1.73-1.26l.17.15.8.77.36.34Z"/>
      </g>
      <path class="cls-1" d="m129.66,25.27c.95.72,1.89,1.47,2.81,2.25-6.11,5.47-12.23,10.91-18.33,16.37-1.51,1.36-2.95,2.81-4.31,4.32-5.22,5.83-7.94,12.35-5.93,20.36.9,3.56-.02,6.97-2,10.07-2.28,3.55-5.96,5.5-9.21,7.9-2.2,1.63-4.4,3.24-6.6,4.85l-1.68-82.33h0c16.1.6,31.99,6.07,45.25,16.21Z"/>
      <path class="cls-5" d="m86.09,91.39h0c-.43.32-.86.64-1.29.95L23.27,34.36c2.09-2.25,4.35-4.41,6.75-6.45,3.56-3.02,7.31-5.68,11.2-7.96,1.11,1.84,2.57,3.42,4.09,4.96,3.92,3.93,8.28,7.36,12.74,10.67.87.64,1.77,1.27,2.69,1.94.08-.18.12-.3.17-.43,1.47-4.33,2.78-8.72,3.83-13.18.76-3.28,1.38-6.57,1.55-9.94.05-1.19.01-2.36-.21-3.48,6.05-1.18,12.2-1.66,18.33-1.44h0s1.68,82.34,1.68,82.34Z"/>
      <path class="cls-3" d="m84.8,92.34c-.58.43-1.15.85-1.73,1.26h-.01l-80.89.11c-1.39-21.31,5.79-42.94,21.1-59.35l61.53,57.98Z"/>
      <path class="cls-4" d="m2.17,93.71l80.89-.11c-6.55,4.79-13.11,9.55-19.66,14.33-9.82,7.16-19.65,14.3-29.45,21.49-4.38,3.21-8.82,6.35-12.98,9.82-.12.1-.25.21-.36.32-11.29-13.45-17.37-29.56-18.44-45.85Z"/>
      <g>
        <path class="cls-2" d="m41.22,19.95c-3.89,2.28-7.64,4.94-11.2,7.96-2.4,2.04-4.66,4.2-6.75,6.45C7.96,50.77.78,72.4,2.17,93.71c1.07,16.29,7.15,32.4,18.44,45.85l.02.02c.09.12.18.22.28.34"/>
        <path class="cls-2" d="m134.44,29.24c-.65-.59-1.3-1.16-1.97-1.72-.92-.78-1.86-1.53-2.81-2.25-13.26-10.14-29.15-15.61-45.25-16.22-6.13-.22-12.28.26-18.33,1.44"/>
      </g>
      <g>
        <path class="cls-6" d="m118.55,159.14c-.61.57-.38,1.61-.09,2.35l12.12,30.49-1.89,1.76-29.6-14.26c-.69-.32-1.74-.65-2.35-.09l-.71-.76,7.9-7.33.71.76c-.61.57-.62,1.66.19,2.04l.23.13,20.34,9.86-8.39-21.46c-.39-.72-1.39-.76-1.97-.22l-.71-.76,3.51-3.26.71.76Z"/>
        <path class="cls-6" d="m163.12,158.09c.57.61,1.74.65,2.35.09l.71.76-5.8,5.38-6.6-7.11-4.08-4.39c-1.61-1.74-3.35-1.77-4.91-.33-.88.82-1.26,2.25-1.19,3.61.46.31.92.68,1.34,1.14l8.84,9.52c.57.61,1.74.65,2.35.09l.71.76-5.8,5.38-6.6-7.11-4.08-4.39c-1.61-1.74-3.35-1.77-4.91-.33-.82.76-1.19,2.02-1.18,3.31l10.17,10.95c.57.61,1.74.65,2.35.09l.71.76-5.8,5.38-12.6-13.57c-.57-.61-1.74-.65-2.35-.09l-.71-.76,5.8-5.38,1.25,1.34c.16-1.91.95-4.18,2.72-5.82s4.22-2.73,6.61-1.87c-.07-2.09.65-4.86,2.73-6.79,2.41-2.24,6.08-3.43,9.13-.13l8.84,9.52Z"/>
        <path class="cls-6" d="m181.89,130.72c5.75,6.19.79,12.9-4.83,18.11l-9.06,8.41-.71-.76c.61-.57.65-1.74.09-2.35l-18.97-20.44c-.57-.61-1.74-.65-2.35-.09l-.71-.76,8.05-7.48c6.31-5.86,11.05-8.04,14.9-3.89,2.55,2.74,2.24,5.59-.06,8.86,4.53-2.95,9.43-4.16,13.65.39Zm-22.2,4.71c.57.61,1.74.65,2.35.09l.43-.4c3.14-2.92,3.26-5.42.35-8.56s-5.56-3.36-8.7-.44l-.43.4c-.61.57-.65,1.74-.09,2.35l6.09,6.56Zm16.67,12.64c3.42-3.17,4.06-7.92.04-12.25-4.02-4.33-8.8-4.04-12.22-.87l-1.43,1.33c-.61.57-.65,1.74-.09,2.35l9.91,10.68c.57.61,1.74.65,2.35.09l1.43-1.33Z"/>
      </g>
      <g>
        <path class="cls-6" d="m196.08,70.75c.76,2.29-.05,3.99-1.79,5.54-20.19,17.96-40.37,35.94-60.53,53.94-1.27,1.14-2.49,1.81-4.13.78-4.66,5.03-9.27,10-13.86,14.98-8.16,8.84-16.3,17.69-24.45,26.53-6.52,7.07-13.09,14.1-19.57,21.22-3.98,4.37-9.55,5.84-14.94,3.74-4.98-1.94-8.18-6.93-7.94-12.6.18-3.99,1.97-7.27,5.15-9.62,9.27-6.86,18.61-13.63,27.93-20.42,9.76-7.13,19.52-14.25,29.29-21.37,4.13-3.02,8.26-6.03,12.46-9.09-2.01-3.36-.11-6.34.99-9.22,4.5-11.83,12.69-20.35,24.08-25.84,13.59-6.55,27.2-13.08,40.78-19.66,1.77-.86,3.48-1.16,5.3-.29l1.23,1.38Z"/>
        <path class="cls-6" d="m20.61,139.56c.11-.11.24-.22.36-.32,4.16-3.47,8.6-6.61,12.98-9.82,9.8-7.19,19.63-14.33,29.45-21.49,6.55-4.78,13.11-9.54,19.66-14.33h3.07l-.02-1.11-.02-1.09h0c2.2-1.62,4.4-3.23,6.6-4.86,3.25-2.4,6.93-4.35,9.21-7.9,1.98-3.1,2.9-6.51,2-10.07-2.01-8.01.71-14.53,5.93-20.36,1.36-1.51,2.8-2.96,4.31-4.32,6.1-5.46,12.22-10.9,18.33-16.37,3.89-3.45,7.77-6.92,11.65-10.39,1.37-1.23,2.77-1.78,4.53-1.06l1.23,1.38c.34,2.05-.65,3.45-2.12,4.75-8.83,7.81-17.61,15.66-26.41,23.51-.55.49-1.11.98-1.59,1.54-1.07,1.25-1.05,2.62-.06,3.88.99,1.25,2.33,1.6,3.78.83.7-.37,1.34-.88,1.93-1.41,8.99-8,17.98-15.98,26.93-24.02,1.44-1.29,2.87-1.83,4.69-1.06l1.23,1.38c.36,1.97-.48,3.37-1.93,4.65-9.15,8.09-18.26,16.23-27.37,24.36-1.79,1.61-2.05,3.39-.78,4.84,1.26,1.45,3.12,1.43,4.92-.07.38-.31.74-.65,1.11-.98,8.84-7.88,17.71-15.74,26.51-23.66,1.44-1.3,2.87-1.8,4.69-1.12l1.23,1.38c.38,1.96-.41,3.37-1.88,4.67-8.97,7.91-17.88,15.9-26.81,23.86-.51.45-1.06.88-1.46,1.42-.9,1.22-.97,2.53-.02,3.76.99,1.27,2.32,1.63,3.78.92.7-.34,1.32-.89,1.92-1.42,8.94-7.95,17.89-15.9,26.78-23.9,1.47-1.32,2.93-1.97,4.84-1.29.41.46.82.92,1.23,1.39.31,1.66-.22,2.95-1.5,4.08-11.16,9.83-22.19,19.81-33.49,29.49-5.03,4.31-10.92,6.99-17.87,5.92-1.33-.21-2.63-.65-3.92-1.05-5.98-1.83-11.13-.42-15.33,4.12-16.35,17.65-32.65,35.34-48.96,53.02-4.68,5.08-9.33,10.2-14.02,15.27-7.02,7.58-18.41,5.74-22.1-3.55-1.8-4.52-.8-10.14,2.78-13.4Z"/>
      </g>
      <path d="m62.99,39.9c-1.03-.67-2.02-1.3-3-1.96-4.96-3.34-9.82-6.82-14.24-10.87-1.84-1.69-3.63-3.45-4.97-5.59-1.72-2.75-2.17-5.79-1.74-8.95.79-5.9,5.16-10.71,10.94-12.1,6.5-1.56,12.9,1.23,16.19,7.03,1.2,2.12,1.6,4.4,1.6,6.8,0,3.64-.52,7.22-1.17,10.78-.9,4.86-2.08,9.65-3.45,14.4-.04.14-.09.27-.16.47Zm-3.69-27.53c-1.25-3.31-4.73-4.89-8.03-3.65-3.3,1.24-4.88,4.72-3.65,8.03,1.25,3.33,4.74,4.92,8.06,3.66,3.29-1.25,4.86-4.74,3.62-8.04Z"/>
    </g>
  </g>
</svg>